<svg xmlns="http://www.w3.org/2000/svg"  viewBox="0 0 48 48" width="240px" height="240px"><path fill="#373837" d="M9.908,45.049c7.485-0.485,5.485,0.015,10.985,0.015c0.906,0,5.076-0.056,5.977,0.045	c2.218,0.247,4.459,0.101,6.687-0.046c3.044-0.2,6.351,0.486,8.851-2.014c1.538-1.538,1.873-4.441,1.981-6.613	c0.108-2.172,0.004-8.372-0.496-11.372c-0.97-5.818-0.278-6.389-0.05-12.023c0.083-2.056,0.352-4.888-0.935-6.492	c-1.24-1.545-2.015-2.985-6.515-2.985c-4.447,0-5.258,0.726-9.705,0.703c-1.699-0.009-4.708,0.086-7.268,0.122	c-1.371,0.019-3.214-0.131-4.584-0.11C13.56,4.3,10.064,4.033,8.758,4.139S5.093,4.831,4.088,6.835	c-0.76,1.516-0.546,3.713-0.479,4.542c0.085,1.045,0.246,4.639,0.299,5.173c0.5,5,0.099,4.291,0.099,9.291	c0,1.388-0.07,6.322-0.099,7.709c-0.072,3.512-0.184,5.396,0,6.5C4.408,43.049,6.908,45.049,9.908,45.049"/><path fill="#010101" d="M29.474,45.742c-0.886,0-1.774-0.037-2.659-0.136c-0.694-0.076-3.64-0.056-5.055-0.047l-0.867,0.005	c-2.133,0-3.136-0.073-4.021-0.139c-1.371-0.101-2.36-0.175-6.932,0.123L9.908,45.55c-3.292,0-5.961-2.228-6.493-5.418	c-0.149-0.896-0.115-2.222-0.059-4.418c0.017-0.646,0.035-1.367,0.052-2.174c0.029-1.439,0.099-6.33,0.099-7.7	c0-1.849,0.055-2.925,0.099-3.789c0.073-1.449,0.118-2.324-0.195-5.451c-0.026-0.259-0.077-1.229-0.132-2.285	c-0.059-1.128-0.124-2.356-0.167-2.897c-0.084-1.026-0.266-3.218,0.53-4.806c1.241-2.474,4.2-2.899,5.078-2.971	c0.805-0.067,2.317,0.001,3.78,0.065c0.939,0.042,1.83,0.09,2.329,0.073c0.698-0.005,1.518,0.022,2.336,0.056	c0.788,0.032,1.577,0.061,2.249,0.055c1.008-0.015,2.085-0.037,3.124-0.06c1.605-0.035,3.125-0.061,4.154-0.062	c2.217-0.001,3.476-0.161,4.818-0.344c1.301-0.177,2.646-0.359,4.884-0.359c4.415,0,5.497,1.38,6.643,2.841l0.263,0.332	c1.289,1.606,1.168,4.182,1.071,6.251l-0.026,0.574c-0.069,1.705-0.179,2.93-0.275,4.011c-0.218,2.434-0.349,3.902,0.318,7.909	C44.89,28.01,45,34.222,44.888,36.461c-0.108,2.175-0.445,5.26-2.127,6.942c-2.102,2.102-4.688,2.107-7.189,2.113	c-0.667,0.002-1.331,0.003-1.983,0.046C32.238,45.651,30.858,45.742,29.474,45.742z M24.104,44.549c1.287,0,2.382,0.015,2.821,0.063	c2.18,0.243,4.426,0.096,6.598-0.048c0.673-0.044,1.359-0.046,2.046-0.048c2.404-0.005,4.675-0.011,6.484-1.82	c1.438-1.438,1.736-4.275,1.835-6.284c0.109-2.202,0.004-8.304-0.49-11.266c-0.688-4.132-0.553-5.649-0.328-8.162	c0.096-1.069,0.204-2.282,0.272-3.963l0.026-0.58c0.089-1.901,0.201-4.268-0.852-5.579l-0.269-0.34	c-1.077-1.373-1.928-2.458-5.856-2.458c-2.169,0-3.481,0.178-4.75,0.351c-1.317,0.18-2.669,0.365-4.958,0.353	c-1.029-0.001-2.533,0.028-4.127,0.062c-1.042,0.022-2.122,0.046-3.132,0.061c-0.694,0.008-1.497-0.023-2.304-0.056	c-0.798-0.033-1.598-0.07-2.279-0.055c-0.536,0.01-1.435-0.031-2.389-0.074c-1.365-0.062-2.913-0.129-3.655-0.068	C8.053,4.698,5.541,5.052,4.534,7.06c-0.67,1.337-0.505,3.332-0.435,4.184c0.052,0.64,0.117,1.88,0.177,3.02	c0.054,1.034,0.104,1.984,0.129,2.237c0.32,3.201,0.274,4.104,0.198,5.602c-0.043,0.854-0.097,1.915-0.097,3.738	c0,1.375-0.069,6.278-0.099,7.72c-0.017,0.81-0.035,1.533-0.052,2.18c-0.055,2.137-0.088,3.426,0.045,4.229	c0.449,2.692,2.706,4.575,5.491,4.582c4.625-0.301,5.644-0.226,7.054-0.121c0.867,0.063,1.85,0.136,3.947,0.136l0.86-0.005	C22.54,44.554,23.354,44.549,24.104,44.549z"/><path fill="#d6e5e5" d="M13.457,21.326c-0.63-0.06-1.158-0.623-1.87-0.739c-0.99-0.161-1.559-0.205-2.463,0.231	s-1.712,1.131-1.975,2.099c-0.133,0.49-0.277,1.271-0.286,1.778c-0.014,0.776-0.061,1.125,0.079,2.02	c0.097,0.619,0.271,1.366,0.413,1.976c0.137,0.588,0.261,1.193,0.511,1.743c0.224,0.495,0.45,0.993,0.768,1.433	c0.752,1.039,2.195,1.687,3.357,1.144c0.274-0.128,0.522-0.315,0.814-0.393c0.791-0.211,1.538,0.425,2.335,0.609	c0.783,0.18,1.615-0.094,2.272-0.554c0.658-0.461,0.932-0.855,1.437-1.48c0.395-0.488,0.934-1.632,1.152-2.221	c0.218-0.589,0.218-0.926-0.181-1.296c-0.212-0.197-0.404-0.414-0.614-0.613c-0.582-0.553-0.892-1.108-0.933-1.909	c-0.04-0.802,0.308-1.483,0.976-1.927c0.153-0.101,0.327-0.191,0.414-0.352c0.11-0.204,0.041-0.468-0.107-0.648	c-0.147-0.18-0.611-0.707-0.803-0.839c-0.876-0.602-1.278-0.913-2.566-0.824C15.238,20.627,14.406,21.438,13.457,21.326"/><path fill="#d6e5e5" d="M15.106,15.523c-0.077,0.046-0.924,0.779-1.112,1.249c-0.474,1.186-0.365,1.655-0.176,2.43	c0.011,0.043,0.025,0.089,0.059,0.117c0.051,0.042,0.126,0.031,0.191,0.017c0.794-0.174,1.134-0.309,1.868-0.657	c0.485-0.229,0.845-0.64,1.062-0.842c0.513-0.475,0.779-1.203,0.819-1.902c0.026-0.463-0.026-0.762,0-1.225	C17.817,14.711,16.17,14.881,15.106,15.523z"/><path fill="#d6e5e5" d="M26.621,23.122c-0.036,0.51-0.123,1.935-0.137,2.903c-0.014,1.013-0.223,2.016,0.03,2.997	c0.039,0.151,0.099,0.306,0.222,0.403c0.199,0.157,0.483,0.109,0.736,0.128c0.478,0.036,0.836-0.085,1.246,0.26	c0.367,0.309,0.159,1.448,0.05,1.915c-0.043,0.186-0.111,0.371-0.235,0.516c-0.27,0.317-0.73,0.374-1.144,0.408	c-0.89,0.074-1.878,0.121-2.574-0.438c-0.619-0.497-0.977-1.007-1.145-1.784c-0.11-0.512-0.071-1.36-0.041-1.883	c0.035-0.624-0.017-1.217,0.038-1.84c0.086-0.964,0.03-1.94,0.163-2.898c0.022-0.16,0.053-0.34-0.043-0.471	c-0.085-0.116-0.242-0.15-0.384-0.175c-0.38-0.067-0.484,0.043-1.092,0.118c-0.114,0.014-0.357-0.01-0.441-0.088	c-0.099-0.092-0.05-0.591-0.07-0.725c-0.097-0.65-0.08-1.455,0.139-1.977c0.478-0.032,0.772-0.047,1.25-0.079	c0.093-0.006,0.194-0.016,0.261-0.08c0.069-0.066,0.082-0.17,0.09-0.265c0.072-0.821-0.102-1.825,0.073-2.386	c0.453-0.202,1.464,0.119,2.317,0.021c0.087-0.01,0.178-0.02,0.257,0.016c0.134,0.061,0.178,0.226,0.203,0.371	c0.115,0.671,0.142,1.357,0.081,2.035c-0.007,0.077-0.013,0.161,0.033,0.223c0.044,0.06,0.124,0.08,0.197,0.094	c0.498,0.095,0.823,0.06,1.324-0.012c0.125-0.018,0.269-0.036,0.363,0.05c0.064,0.058,0.087,0.575,0.106,0.781	c0.071,0.777,0.138,1.512-0.529,1.667C27.674,22.994,26.64,22.855,26.621,23.122z"/><path fill="#d6e5e5" d="M31.499,20.333c-0.075,0.005-0.866,0.107-0.922,0.157c-0.181,0.163-0.147,0.337-0.093,0.492	c0.315,0.906,0.936,3.95,1.051,4.693c0.581,3.737,1.234,6.403,1.806,6.8c0.275,0.191,0.942,0.069,1.014,0.071	c0.582,0.015,0.359,0.009,0.941,0.025c0.327,0.009,0.676,0.012,0.954-0.163c0.334-0.21,0.475-0.618,0.592-0.995	c0.194-0.623,0.388-1.246,0.582-1.869c0.635-2.037,1.269-4.074,1.904-6.111c0.279-0.896,0.576-1.587,0.903-2.725	c-1.114-0.036-1.8-0.116-2.852,0.023c-0.129,0.017-0.267,0.041-0.36,0.132c-0.082,0.08-0.113,0.198-0.141,0.31	c-0.349,1.395-0.56,2.256-0.878,3.658c-0.26,1.148-0.536,3.002-0.876,4.144c-0.489-1.241-0.865-3.932-0.95-4.468	c-0.368-2.314-0.365-3.186-0.864-4.003C33.086,20.139,31.499,20.333,31.499,20.333z"/><path fill="#010101" d="M15.636,33.78c-0.208,0-0.411-0.022-0.608-0.067c-0.329-0.076-0.63-0.209-0.921-0.337	c-0.447-0.198-0.834-0.368-1.173-0.276c-0.126,0.033-0.266,0.112-0.413,0.194c-0.105,0.06-0.21,0.118-0.318,0.169	c-1.474,0.685-3.146-0.157-3.975-1.304c-0.351-0.485-0.588-1.012-0.819-1.521c-0.244-0.538-0.374-1.104-0.5-1.651l-0.042-0.184	c-0.143-0.612-0.32-1.374-0.42-2.013c-0.121-0.776-0.11-1.173-0.094-1.721l0.009-0.385c0.01-0.552,0.16-1.374,0.304-1.901	c0.27-0.994,1.066-1.853,2.241-2.417c1.048-0.505,1.742-0.441,2.761-0.273c0.435,0.07,0.795,0.266,1.114,0.438	c0.271,0.147,0.505,0.274,0.722,0.295c0.004,0.001,0.008,0.001,0.012,0.002c0.388,0.038,0.798-0.141,1.235-0.335	c0.437-0.194,0.888-0.396,1.405-0.432c1.413-0.096,1.966,0.28,2.796,0.852l0.087,0.06c0.303,0.208,0.9,0.927,0.906,0.934	c0.292,0.356,0.356,0.84,0.16,1.204c-0.134,0.247-0.349,0.384-0.506,0.484c-0.595,0.394-0.855,0.908-0.824,1.531	c0.032,0.63,0.25,1.07,0.777,1.572c0.104,0.099,0.206,0.202,0.306,0.306c0.1,0.104,0.199,0.206,0.304,0.304	c0.646,0.601,0.531,1.237,0.31,1.836c-0.2,0.539-0.767,1.785-1.232,2.361l-0.179,0.223c-0.406,0.507-0.727,0.907-1.36,1.352	C17.046,33.538,16.321,33.78,15.636,33.78z M13.133,32.073c0.501,0,0.961,0.203,1.378,0.388c0.26,0.114,0.506,0.223,0.742,0.277	c0.571,0.13,1.253-0.043,1.873-0.477c0.517-0.362,0.771-0.679,1.154-1.158l0.182-0.227c0.344-0.426,0.856-1.498,1.072-2.08	c0.194-0.526,0.117-0.598-0.053-0.756c-0.118-0.109-0.229-0.225-0.341-0.34c-0.091-0.094-0.181-0.187-0.276-0.276	c-0.708-0.673-1.043-1.366-1.088-2.247c-0.049-0.981,0.377-1.822,1.199-2.369c0.003-0.002,0.085-0.056,0.088-0.058	c0.058-0.036,0.145-0.092,0.165-0.118c-0.001,0.005-0.017-0.044-0.055-0.091c-0.21-0.256-0.594-0.671-0.7-0.744l-0.087-0.061	c-0.793-0.546-1.091-0.749-2.16-0.677c-0.341,0.023-0.693,0.181-1.066,0.347c-0.515,0.23-1.096,0.488-1.754,0.415	c-0.417-0.041-0.764-0.229-1.1-0.411c-0.272-0.147-0.529-0.287-0.797-0.331c-0.964-0.157-1.4-0.182-2.166,0.188	c-0.527,0.254-1.45,0.821-1.71,1.779c-0.124,0.456-0.261,1.191-0.269,1.656l-0.01,0.396c-0.015,0.514-0.024,0.853,0.083,1.538	c0.094,0.603,0.267,1.344,0.405,1.94l0.043,0.187c0.12,0.522,0.233,1.016,0.436,1.463c0.21,0.464,0.427,0.943,0.718,1.347	c0.602,0.833,1.793,1.43,2.74,0.983c0.086-0.04,0.168-0.087,0.251-0.134c0.186-0.104,0.396-0.223,0.645-0.29	C12.832,32.092,12.984,32.073,13.133,32.073z"/><path fill="#010101" d="M13.972,19.849c-0.157,0-0.295-0.048-0.411-0.143c-0.166-0.136-0.211-0.315-0.228-0.383	c-0.218-0.892-0.316-1.456,0.196-2.737c0.249-0.62,1.207-1.424,1.317-1.491c0,0,0.001,0,0.001-0.001	c1.147-0.69,2.846-0.873,2.918-0.88c0.146-0.018,0.29,0.034,0.396,0.136c0.106,0.101,0.162,0.243,0.154,0.39	c-0.012,0.214-0.005,0.391,0,0.567c0.007,0.205,0.014,0.409,0,0.658c-0.05,0.894-0.406,1.71-0.978,2.24l-0.126,0.122	c-0.235,0.231-0.591,0.582-1.062,0.805c-0.78,0.369-1.154,0.513-1.975,0.692C14.104,19.841,14.037,19.849,13.972,19.849z M15.38,15.941c-0.196,0.149-0.811,0.739-0.922,1.016c-0.356,0.892-0.345,1.285-0.225,1.828c0.555-0.135,0.864-0.262,1.489-0.558	c0.317-0.15,0.59-0.418,0.789-0.613l0.148-0.144c0.377-0.35,0.624-0.934,0.659-1.562c0.012-0.214,0.005-0.391,0-0.567	c-0.001-0.016-0.001-0.031-0.002-0.048C16.783,15.393,15.973,15.589,15.38,15.941z"/><path fill="#010101" d="M26.534,33.194c-0.734,0-1.446-0.121-2.032-0.592c-0.741-0.595-1.136-1.213-1.321-2.067	c-0.115-0.534-0.09-1.318-0.051-2.017c0.015-0.27,0.013-0.532,0.011-0.795c-0.002-0.352-0.003-0.702,0.028-1.061	c0.036-0.402,0.046-0.806,0.056-1.21c0.015-0.559,0.03-1.137,0.11-1.714c0.004-0.026,0.007-0.054,0.011-0.078	c-0.012-0.003-0.023-0.005-0.03-0.006c-0.141-0.023-0.193-0.014-0.389,0.027c-0.138,0.028-0.308,0.064-0.554,0.095	c-0.008,0-0.542,0.062-0.842-0.217c-0.23-0.216-0.228-0.541-0.226-0.886c0-0.059,0.002-0.11-0.001-0.144	c-0.097-0.642-0.103-1.574,0.173-2.234c0.073-0.175,0.239-0.293,0.428-0.306l1.143-0.071c0.02-0.319,0.008-0.623-0.002-0.917	c-0.019-0.547-0.037-1.063,0.09-1.471c0.043-0.138,0.143-0.25,0.274-0.309c0.366-0.161,0.824-0.114,1.353-0.059	c0.377,0.038,0.768,0.08,1.11,0.04c0.12-0.012,0.317-0.035,0.521,0.058c0.392,0.181,0.464,0.603,0.488,0.741	c0.112,0.652,0.146,1.315,0.102,1.975c0.318,0.039,0.566,0.014,0.97-0.045c0.166-0.021,0.501-0.069,0.771,0.176	c0.19,0.171,0.215,0.417,0.255,0.956l0.012,0.148c0.075,0.824,0.176,1.947-0.914,2.199c-0.147,0.034-0.321,0.036-0.598,0.034	c-0.101,0-0.255-0.002-0.382,0.006c-0.043,0.675-0.105,1.791-0.116,2.578c-0.004,0.312-0.026,0.621-0.048,0.93	c-0.048,0.682-0.094,1.325,0.063,1.935c0.028,0.109,0.051,0.139,0.053,0.142c0.043,0.012,0.305,0.005,0.458,0.017	c0.106,0.007,0.205,0.007,0.3,0.006c0.35-0.009,0.782-0.007,1.229,0.369c0.432,0.363,0.505,1.175,0.215,2.413	c-0.069,0.3-0.181,0.537-0.34,0.725c-0.423,0.496-1.088,0.551-1.485,0.583C27.133,33.175,26.832,33.194,26.534,33.194z M23.186,22.642c0.091,0,0.19,0.009,0.306,0.029c0.159,0.028,0.49,0.087,0.698,0.37c0.213,0.291,0.167,0.62,0.139,0.816	c-0.075,0.541-0.089,1.066-0.104,1.622c-0.011,0.425-0.022,0.85-0.06,1.271c-0.029,0.327-0.026,0.646-0.024,0.966	c0.002,0.283,0.003,0.567-0.013,0.858c-0.021,0.382-0.071,1.275,0.031,1.749c0.135,0.628,0.407,1.048,0.969,1.499	c0.536,0.431,1.356,0.402,2.22,0.33c0.315-0.026,0.663-0.067,0.806-0.234c0.053-0.062,0.095-0.162,0.127-0.305	c0.185-0.789,0.166-1.327,0.095-1.442c-0.136-0.109-0.248-0.114-0.557-0.113c-0.122,0.003-0.25,0.002-0.385-0.008	c-0.053-0.005-0.106-0.005-0.16-0.005c-0.238-0.003-0.563-0.007-0.847-0.229c-0.253-0.2-0.348-0.479-0.397-0.674	c-0.198-0.766-0.144-1.522-0.092-2.254c0.021-0.289,0.042-0.58,0.046-0.872c0.013-0.94,0.096-2.329,0.138-2.932l0,0	c0.045-0.645,0.809-0.643,1.364-0.639c0.149,0.003,0.289,0.007,0.371-0.009c0.187-0.044,0.218-0.286,0.142-1.129l-0.014-0.17	c-0.004-0.062-0.009-0.129-0.014-0.196c-0.497,0.065-0.857,0.085-1.362-0.012c-0.092-0.018-0.341-0.063-0.507-0.289	c-0.159-0.213-0.138-0.449-0.127-0.563c0.058-0.632,0.033-1.27-0.074-1.895c-0.418,0.062-0.853,0.016-1.24-0.025	c-0.195-0.021-0.436-0.045-0.616-0.047c-0.019,0.244-0.009,0.554,0.002,0.856c0.013,0.378,0.026,0.769-0.007,1.143	c-0.01,0.113-0.033,0.38-0.241,0.581c-0.2,0.191-0.442,0.209-0.572,0.219l-0.912,0.057c-0.085,0.39-0.095,0.922-0.019,1.426	c0.008,0.058,0.011,0.165,0.01,0.288c0,0.025,0,0.06,0,0.097c0.178-0.024,0.308-0.052,0.416-0.074	C22.875,22.672,23.015,22.642,23.186,22.642z M27.12,23.156L27.12,23.156C27.12,23.156,27.12,23.157,27.12,23.156	C27.12,23.157,27.12,23.156,27.12,23.156z M26.621,23.121h0.01H26.621z"/><path fill="#010101" d="M33.84,33.081c-0.292,0-0.57-0.046-0.784-0.195c-0.277-0.191-1.015-0.703-2.015-7.133	c-0.109-0.706-0.723-3.724-1.029-4.606c-0.179-0.516,0.026-0.843,0.229-1.027c0.206-0.186,0.905-0.26,1.208-0.284	c1.258-0.149,2.028-0.014,2.287,0.41c0.43,0.703,0.531,1.42,0.715,2.722c0.059,0.414,0.126,0.896,0.216,1.464l0.034,0.22	c0.064,0.425,0.203,1.333,0.385,2.238c0.042-0.217,0.083-0.436,0.124-0.652c0.104-0.555,0.205-1.084,0.302-1.516	c0.319-1.406,0.531-2.27,0.881-3.669c0.035-0.138,0.093-0.365,0.277-0.545c0.218-0.216,0.506-0.254,0.645-0.271	c0.873-0.114,1.495-0.088,2.282-0.052l0.65,0.025c0.154,0.005,0.297,0.081,0.388,0.206c0.091,0.124,0.119,0.284,0.076,0.432	c-0.194,0.677-0.378,1.197-0.554,1.696c-0.121,0.342-0.238,0.673-0.352,1.039l-2.486,7.98c-0.118,0.379-0.296,0.951-0.804,1.271	c-0.415,0.26-0.887,0.25-1.233,0.238l-0.941-0.024C34.177,33.066,34.006,33.081,33.84,33.081z M30.988,20.907	c0.352,1.124,0.931,3.976,1.042,4.692c0.907,5.832,1.573,6.444,1.601,6.468c0.02,0.007,0.151,0.041,0.582-0.01	c0.023-0.002,0.146-0.004,0.157-0.011l0.941,0.024c0.283,0.009,0.528,0.006,0.675-0.086c0.18-0.112,0.283-0.404,0.38-0.72	l2.486-7.98c0.118-0.379,0.239-0.722,0.364-1.075c0.113-0.32,0.229-0.65,0.35-1.027h-0.012c-0.768-0.036-1.322-0.061-2.108,0.045	c-0.036,0.004-0.06,0.008-0.078,0.012c0.007,0.011,0,0.039-0.005,0.057c-0.347,1.39-0.558,2.247-0.875,3.646	c-0.096,0.422-0.193,0.938-0.295,1.48c-0.181,0.96-0.368,1.953-0.59,2.696c-0.061,0.205-0.245,0.348-0.458,0.357	c-0.237-0.015-0.409-0.119-0.487-0.316c-0.461-1.172-0.813-3.486-0.946-4.358l-0.033-0.214c-0.091-0.574-0.16-1.062-0.219-1.48	c-0.163-1.157-0.249-1.762-0.538-2.273c-0.206-0.063-0.822-0.068-1.363-0.004c-0.006,0.001-0.013,0.002-0.02,0.002	C31.464,20.838,31.193,20.874,30.988,20.907z M32.961,20.849L32.961,20.849L32.961,20.849z M31.5,20.333h0.01H31.5z"/></svg>