<svg xmlns="http://www.w3.org/2000/svg"  viewBox="0 0 48 48" width="240px" height="240px"><path fill="#1e4384" d="M3.849,36.163c-0.147-3.092-0.585-7.816-0.556-12.801C3.309,20.553,3.12,13.151,3.12,13.151 c0-4.728,3.76-8.45,8.451-9.041c1.601-0.202,4.98-0.767,6.478-0.58c3.196,0.398,8.009-0.219,9.326-0.083 c5.993,0.617,6.244,0.318,8.308,0.083c4.699-0.536,8.796,3.838,8.562,8.561c-0.203,4.112-1.221,12.317-0.854,16.447 c0.276,3.11,0.727,5.41,0.854,7.224c0.33,4.717-2.544,8.529-8.561,8.561c-1.612,0.009-3.57,0.585-6.425,0.527 c-3.469-0.07-6.546-0.495-8.105-0.527c-2.285-0.047-6.856-0.008-9.142,0C7.285,44.339,4.156,42.592,3.849,36.163z"/><path fill="#010101" d="M2.62,13.163c0-4.812,3.822-8.912,8.889-9.549c0.303-0.038,0.671-0.089,1.078-0.146 c1.792-0.25,4.247-0.593,5.524-0.434c1.95,0.243,4.603,0.094,6.541-0.014c1.252-0.07,2.241-0.125,2.775-0.07 c5.003,0.516,5.929,0.388,7.331,0.195c0.265-0.037,0.545-0.075,0.869-0.112c2.231-0.255,4.516,0.542,6.269,2.186 c1.908,1.79,2.968,4.371,2.849,6.896c-0.063,1.284-0.208,2.983-0.36,4.781c-0.332,3.917-0.745,8.791-0.496,11.596 c0.145,1.625,0.336,3.025,0.506,4.26c0.155,1.125,0.288,2.097,0.349,2.974c0.177,2.527-0.548,4.811-2.041,6.421 c-1.608,1.734-4.035,2.659-7.017,2.675c-0.624,0.003-1.313,0.098-2.113,0.207c-1.215,0.167-2.592,0.354-4.324,0.32 c-2.096-0.042-4.042-0.212-5.606-0.349c-1.015-0.089-1.891-0.165-2.499-0.178c-1.801-0.038-5.06-0.021-7.439-0.008l-1.69,0.008 c-5.707,0.02-8.379-2.644-8.665-8.636l0,0c-0.041-0.854-0.104-1.834-0.173-2.909c-0.181-2.806-0.4-6.296-0.384-9.919 C2.804,20.585,2.622,13.237,2.62,13.163z M43.754,11.712c0-2.124-0.935-4.255-2.542-5.763c-1.561-1.464-3.504-2.147-5.472-1.923 c-0.316,0.036-0.588,0.074-0.846,0.109c-1.473,0.203-2.447,0.336-7.57-0.191c-0.456-0.047-1.458,0.009-2.617,0.074 c-2.085,0.116-4.68,0.261-6.72,0.007c-1.146-0.143-3.623,0.204-5.262,0.433c-0.412,0.057-0.784,0.109-1.091,0.148 C7.065,5.181,3.62,8.854,3.62,13.15c0.001,0.061,0.179,7.438,0.173,10.214c-0.024,3.582,0.202,7.059,0.382,9.849 c0.069,1.082,0.133,2.066,0.174,2.926l0,0c0.261,5.475,2.48,7.701,7.662,7.684l1.688-0.008c2.385-0.013,5.651-0.03,7.465,0.008 c0.641,0.013,1.533,0.091,2.565,0.182c1.549,0.135,3.477,0.304,5.54,0.345c1.653,0.034,2.989-0.149,4.168-0.311 c0.834-0.114,1.555-0.212,2.243-0.216c2.699-0.015,4.873-0.829,6.289-2.355c1.322-1.425,1.938-3.389,1.776-5.671 c-0.059-0.843-0.19-1.799-0.342-2.907c-0.171-1.246-0.365-2.659-0.511-4.307c-0.258-2.893,0.143-7.608,0.496-11.77 c0.151-1.79,0.295-3.479,0.357-4.747C43.752,11.948,43.754,11.83,43.754,11.712z"/><path fill="#d6e5e5" d="M31.624,24.434c-3.122-0.054-5.29-2.083-5.27-4.933c0.219-2.932,2.354-5.109,5.194-5.33 c0.107-0.007,0.208-0.01,0.308-0.01c1.341,0,2.655,0.577,3.605,1.583c0.872,0.924,1.315,2.082,1.247,3.261 c-0.05,3.189-2.09,5.431-4.959,5.431L31.624,24.434z M31.561,17.467c-0.5,0-0.944,0.181-1.284,0.524 c-0.361,0.364-0.566,0.883-0.563,1.424c0.071,0.846,0.73,1.76,1.707,1.76l0.121-0.005c0.937-0.061,1.907-0.839,1.85-1.991 c-0.018-0.814-0.745-1.688-1.799-1.712l-0.032-0.5V17.467z"/><path fill="#010101" d="M31.856,14.661c2.349,0,4.486,2.002,4.353,4.315c-0.047,2.991-1.947,4.959-4.461,4.959 c-0.038,0-0.075,0-0.113-0.001c-2.818-0.049-4.8-1.867-4.781-4.43c0.205-2.725,2.181-4.637,4.732-4.835 C31.677,14.664,31.766,14.661,31.856,14.661 M31.421,21.674c0.053,0,0.106-0.002,0.159-0.006c1.237-0.081,2.38-1.111,2.311-2.514 c-0.024-1.085-0.992-2.158-2.287-2.188c-0.015,0-0.029,0-0.044,0c-1.395,0-2.356,1.145-2.346,2.452 C29.313,20.607,30.215,21.674,31.421,21.674 M31.856,13.661c-0.112,0-0.223,0.004-0.335,0.011 c-3.103,0.241-5.427,2.608-5.664,5.757c-0.002,0.023-0.003,0.045-0.003,0.068c-0.023,3.092,2.401,5.379,5.764,5.437l0.13,0.001 c3.109,0,5.406-2.5,5.46-5.943c0.074-1.276-0.417-2.567-1.384-3.592C34.781,14.295,33.334,13.661,31.856,13.661L31.856,13.661z M30.215,19.374c0.006-0.395,0.157-0.769,0.418-1.031c0.17-0.171,0.47-0.376,0.929-0.376c0.778,0.018,1.319,0.652,1.331,1.21 c0.043,0.875-0.682,1.448-1.377,1.493c-0.04,0.003-0.067,0.004-0.094,0.004C30.746,20.674,30.283,20.02,30.215,19.374 L30.215,19.374z"/><path fill="#d6e5e5" d="M20.778,24.458c-0.354,0-0.795-0.09-1.059-0.144c-0.055-0.011-0.101-0.021-0.133-0.026 c-0.049-0.001-0.099-0.01-0.147-0.026c-0.162-0.055-0.285-0.188-0.326-0.355c-0.022-0.091-0.023-0.097-0.028-1.941 c-0.005-2.03-0.016-6.203-0.117-6.837c-0.03-0.067-0.046-0.141-0.045-0.217c0.013-0.633,0.628-0.636,2.273-0.646 c0.592-0.003,2.085-0.229,2.22-0.229c0.028,0,0.057,0.002,0.085,0.007c2.064,0.354,3.23,1.762,3.314,2.969 c-0.003,0.654-0.33,1.705-0.957,2.387c0.465,0.323,0.856,0.937,0.868,2.089c0.08,0.617-0.13,1.277-0.595,1.803 c-0.568,0.643-1.454,1.012-2.429,1.012c0,0-0.084,0-0.126-0.002C22.906,24.602,20.936,24.458,20.778,24.458z M22.34,21.159 c0.255,0.011,0.541,0.03,0.681,0.04c0.243-0.003,0.386-0.185,0.383-0.28c-0.003-0.147-0.232-0.168-0.33-0.17 c-0.043-0.001-0.085-0.008-0.125-0.019c-0.094-0.006-0.264-0.005-0.44-0.005c-0.06,0-0.116,0-0.168,0 C22.34,20.825,22.34,21.134,22.34,21.159z M22.34,17.951c0.254,0.01,0.539,0.029,0.68,0.039c0.241-0.003,0.387-0.188,0.384-0.28 c-0.003-0.147-0.232-0.168-0.33-0.17c-0.042-0.001-0.084-0.008-0.125-0.019c-0.094-0.006-0.263-0.004-0.439-0.005 c-0.061,0-0.118,0-0.171-0.001C22.34,17.617,22.34,17.926,22.34,17.951z"/><path fill="#010101" d="M21.95,24.992c-0.436,0-0.834-0.019-1.047-0.029l-0.126-0.005c-0.407,0-0.877-0.097-1.158-0.154 c-0.149-0.02-0.248-0.037-0.342-0.07c-0.323-0.109-0.567-0.374-0.649-0.708c-0.038-0.157-0.038-0.157-0.043-2.059 c-0.004-1.645-0.014-5.948-0.104-6.71c-0.041-0.114-0.06-0.233-0.058-0.355c0.023-1.12,1.057-1.126,2.77-1.136 c0.368-0.002,1.182-0.106,1.668-0.168c0.29-0.037,0.505-0.061,0.556-0.061l0.17,0.015c2.318,0.398,3.63,2.025,3.729,3.427 c-0.002,0.677-0.268,1.621-0.774,2.363c0.447,0.503,0.256,1.269,0.687,2.143c0.095,0.711-0.166,1.512-0.721,2.139 c-0.663,0.75-1.685,1.18-2.804,1.18l-0.036,0C23.306,24.93,22.742,24.992,21.95,24.992z M23.417,14.536 c-0.045,0.003-0.211,0.025-0.43,0.053c-0.542,0.069-1.36,0.173-1.788,0.176c-0.805,0.004-1.637,0.009-1.789,0.127l0.051,0.157 c0.095,0.595,0.115,3.675,0.123,6.915c0.003,1.21,0.005,1.749,0.015,1.828l0.186,0.025c0.262,0.054,0.686,0.141,0.993,0.141 l0.172,0.007c0.203,0.01,0.583,0.028,1,0.028c0.988,0,1.324-0.103,1.422-0.147l0.334-0.042c0.83,0,1.578-0.307,2.052-0.843 c0.363-0.411,0.536-0.924,0.474-1.408c-0.012-0.88-0.232-1.446-0.658-1.742l-0.47-0.327l0.388-0.422 c0.513-0.558,0.822-1.481,0.825-2.051C26.246,16.035,25.227,14.847,23.417,14.536z M23.028,21.699 c-0.179-0.011-0.459-0.029-0.709-0.04l-0.479-0.02v-1.416h0.581l0.18,0c0.155,0,0.295,0.001,0.38,0.006l0.102,0.017 c0.597,0.016,0.815,0.365,0.822,0.66c0.005,0.177-0.07,0.358-0.213,0.508C23.522,21.592,23.281,21.695,23.028,21.699z M23.028,18.49c-0.18-0.011-0.458-0.029-0.708-0.04l-0.48-0.019V17.01l0.505,0.005l0.083,0l0.193,0c0.147,0,0.28,0.001,0.361,0.006 l0.104,0.018c0.594,0.016,0.813,0.365,0.819,0.659c0.005,0.175-0.07,0.356-0.213,0.506C23.521,18.382,23.279,18.487,23.028,18.49z"/><path fill="#d6e5e5" d="M33.354,19.424c-0.011-1.21-0.833-1.973-1.802-1.919c-0.934,0.163-1.718,0.864-1.763,1.703 c0.062,1.2,0.746,1.787,1.774,1.914C32.63,20.979,33.362,20.358,33.354,19.424z"/><path fill="#010101" d="M31.563,21.622c-0.021,0-0.041-0.001-0.061-0.004c-1.356-0.167-2.142-1.013-2.213-2.384 c0.057-1.099,0.972-2.011,2.177-2.222c0.028-0.005,0.154-0.01,0.183-0.01c1.245,0,2.193,1.04,2.206,2.418 c0.01,1.153-0.863,2.015-2.225,2.197C31.607,21.62,31.585,21.622,31.563,21.622z M31.648,18.002 c-0.749,0.125-1.33,0.656-1.36,1.233c0.044,0.805,0.449,1.261,1.271,1.382c0.376-0.061,1.302-0.301,1.294-1.188 C32.847,18.589,32.351,18.002,31.648,18.002z"/><path fill="#d6e5e5" d="M30.267,34.468c-0.26-0.022-0.463-0.246-0.461-0.506c0-0.038,1.983-3.457,2.886-4.298 c0.074-0.21,0.293-0.288-0.037-0.658c-0.185-0.194-0.48-0.543-1.021-1.182c-0.527-0.624-1.386-1.638-1.658-1.897 c-0.176-0.073-0.299-0.239-0.306-0.436c-0.002-0.068,0.009-0.136,0.033-0.199c0.002-0.005,0.004-0.01,0.006-0.016 c0.269-0.681,0.729-0.759,1.507-0.715c0.367,0.021,1.551,0.25,1.665,0.279c0.247,0.063,0.406,0.301,0.371,0.553 c0.041,0.265,0.792,1.482,1.109,1.931c0.011,0.001,0.021,0.001,0.031,0.001c0.056,0,0.084,0,0.208-0.121 c0.002-0.002,0.054-0.069,0.054-0.069c0.843-1.153,2.113-2.752,2.541-2.752c0.053,0,0.113,0.009,0.163,0.026 c0.109,0.036,0.815,0.319,1.045,0.36c0.533,0.094,1.084,0.191,1.042,0.729c-0.013,0.171-0.113,0.323-0.264,0.403 c-0.018,0.009-0.036,0.018-0.054,0.025c-0.453,0.401-2.3,2.819-2.567,3.304c-0.016,0.074-0.147,0.241-0.197,0.304 c-0.1,0.125,0.255,0.447,0.271,0.544c0.161,0.334,1.139,1.662,1.617,2.312c0.293,0.398,0.541,0.736,0.662,0.914 c0.082,0.074,0.142,0.17,0.161,0.275c0.027,0.147-0.023,0.304-0.12,0.421c-0.009,0.012-0.019,0.023-0.029,0.034 c-0.094,0.101-0.228,0.158-0.365,0.158c-0.063,0-1.396,0.245-1.566,0.245c-0.363,0-0.545-0.355-0.903-0.722 c-0.442-0.453-1.272-1.278-1.607-1.813c-0.03,0.042-0.066,0.092-0.105,0.147c-0.69,0.969-1.029,1.346-1.231,1.537 c-0.878,0.832-0.956,1.043-2.834,0.888C30.294,34.47,30.281,34.469,30.267,34.468z"/><path fill="#010101" d="M31.233,35.017c-0.262,0-0.577-0.017-0.966-0.049c-0.562-0.046-0.965-0.488-0.962-1.01 c0.005-0.419,2.184-3.764,2.968-4.584c0.005-0.01,0.01-0.02,0.016-0.029c-0.002-0.002-0.005-0.005-0.007-0.008 c-0.177-0.185-0.479-0.541-1.029-1.192c-0.45-0.532-1.265-1.496-1.57-1.807c-0.303-0.168-0.5-0.483-0.512-0.832 c-0.005-0.133,0.017-0.266,0.065-0.393c0.373-0.946,1.087-1.064,1.669-1.064c0.106,0,0.22,0.004,0.34,0.011 c0.406,0.023,1.629,0.26,1.761,0.294c0.455,0.116,0.762,0.53,0.75,0.99c0.073,0.184,0.397,0.74,0.695,1.209 c2-2.673,2.479-2.673,2.742-2.673c0.107,0,0.221,0.018,0.321,0.052c0.029,0.009,0.106,0.038,0.207,0.076 c0.176,0.067,0.643,0.244,0.767,0.266c0.535,0.094,1.531,0.269,1.454,1.26c-0.026,0.343-0.224,0.644-0.528,0.806l-0.004,0.002 c-0.466,0.462-2.089,2.579-2.394,3.091c-0.021,0.054-0.051,0.11-0.092,0.175c0.068,0.088,0.133,0.174,0.171,0.276 c0.182,0.338,1.165,1.674,1.542,2.186c0.29,0.394,0.527,0.717,0.658,0.906c0.141,0.145,0.235,0.323,0.269,0.509 c0.052,0.283-0.032,0.594-0.226,0.829c-0.238,0.258-0.504,0.373-0.78,0.373c-0.008,0.004-0.187,0.035-0.402,0.072 c-0.75,0.127-1.039,0.173-1.164,0.173c-0.5,0-0.786-0.332-1.038-0.625c-0.068-0.079-0.14-0.164-0.223-0.249l-0.145-0.148 c-0.319-0.325-0.747-0.762-1.095-1.173c-0.556,0.755-0.835,1.048-1.002,1.207l-0.16,0.153 C32.729,34.671,32.368,35.017,31.233,35.017z M30.369,33.973c1.555,0.125,1.541,0.098,2.266-0.597l0.165-0.157 c0.256-0.243,0.638-0.722,1.167-1.464l0.541-0.752l0.395,0.629c0.272,0.435,0.975,1.151,1.395,1.58l0.146,0.15 c0.099,0.101,0.185,0.201,0.265,0.294c0.09,0.104,0.226,0.263,0.277,0.277c0.124-0.007,0.619-0.094,1-0.159 c0.3-0.051,0.542-0.086,0.57-0.086l-0.06-0.106c-0.119-0.175-0.362-0.507-0.651-0.899c-0.923-1.254-1.516-2.081-1.666-2.391 l-0.01-0.021c-0.197-0.259-0.503-0.673-0.201-1.052c0.028-0.035,0.093-0.113,0.124-0.17c0.297-0.555,2.183-3.042,2.7-3.5 l0.148-0.091c-0.061-0.099-0.429-0.164-0.627-0.199c-0.2-0.035-0.563-0.169-0.948-0.315L37.2,24.882 c-0.097,0.058-0.783,0.686-2.145,2.547l-0.103,0.127c-0.175,0.171-0.321,0.268-0.562,0.268h-0.259l-0.18-0.213 c-0.011-0.016-1.119-1.645-1.195-2.144l-0.011-0.072l0.01-0.073c-0.125-0.03-1.252-0.246-1.569-0.264 c-0.1-0.005-0.194-0.009-0.283-0.009c-0.491,0-0.607,0.097-0.73,0.409l0.146,0.105c0.271,0.257,0.986,1.098,1.696,1.937 c0.53,0.627,0.82,0.97,1.001,1.16c0.452,0.507,0.327,0.87,0.169,1.13l-0.041,0.115l-0.114,0.124 C32.328,30.686,30.803,33.216,30.369,33.973z"/><g><path fill="#d6e5e5" d="M39.878,26.144c-0.127,0-0.25-0.048-0.344-0.137c-0.17-0.162-0.17-0.313-0.171-0.761l0.005,0 c-0.001-0.011-0.003-0.022-0.004-0.034c-0.015-0.187,0.077-0.366,0.237-0.465c0.138-0.085,0.154-0.085,0.986-0.088l0.155-0.001 c0.031-0.006,0.059-0.01,0.085-0.01c0.117,0,0.196,0.062,0.293,0.163c0.159,0.165,0.154,0.282,0.131,0.842 c-0.006,0.145-0.074,0.279-0.187,0.37c-0.089,0.072-0.2,0.11-0.313,0.11c-0.029,0-0.059-0.002-0.088-0.008l-0.111,0.007 c-0.193,0-0.483,0-0.591,0.006C39.935,26.142,39.906,26.144,39.878,26.144z"/><path fill="#010101" d="M40.761,25.157c0.003,0-0.008,0.468-0.008,0.475c-0.002,0-0.085-0.001-0.199-0.001 c-0.261,0-0.686,0.003-0.675,0.014c-0.02-0.018-0.013-0.471-0.016-0.472C39.889,25.157,40.749,25.159,40.761,25.157L40.761,25.157 M39.863,25.173L39.863,25.173L39.863,25.173L39.863,25.173 M40.752,25.632L40.752,25.632L40.752,25.632 M40.752,25.632 L40.752,25.632L40.752,25.632L40.752,25.632 M39.879,25.644C39.879,25.645,39.879,25.645,39.879,25.644 C39.879,25.645,39.879,25.645,39.879,25.644 M40.761,24.157c-0.012,0-0.024,0-0.036,0.001l-0.148,0.001 c-0.886,0.004-0.979,0.004-1.235,0.161c-0.303,0.185-0.485,0.518-0.478,0.873c0,0.003,0,0.006,0,0.009 c0,0.527,0.001,0.875,0.346,1.186c0.186,0.167,0.425,0.257,0.669,0.257c0.043,0,0.087-0.003,0.13-0.009 c0.119-0.004,0.372-0.005,0.545-0.005l0.172,0.001c0.009,0,0.018,0,0.027,0c0.214,0,0.424-0.069,0.599-0.199 c0.228-0.171,0.373-0.431,0.398-0.715c0.058-0.675,0-0.964-0.251-1.237C41.306,24.272,41.038,24.157,40.761,24.157L40.761,24.157z"/></g><g><path fill="#d6e5e5" d="M11.593,24.854c-0.176,0-0.331-0.091-0.42-0.229c-0.134-0.202-0.201-0.37-0.175-8.382 C11,15.625,11.001,15.174,11,15.011c-0.002-0.023-0.003-0.083-0.003-0.084c0.001-0.021,0.01-0.088,0.013-0.1 c0.123-0.573,0.858-0.573,1.297-0.573c0.179,0,0.37,0.005,0.555,0.011c0.167,0.005,0.33,0.01,0.474,0.01 c0.152,0,0.236-0.006,0.279-0.011c0.079-0.05,0.171-0.076,0.265-0.076c0.065,0,0.13,0.013,0.193,0.039 c0.225,0.094,0.349,0.336,0.294,0.573c0.001,0.042-0.001,0.413-0.004,0.875c-0.008,1.084-0.013,1.783-0.044,2.233 c0.065,0.006,0.143,0.01,0.231,0.01c0.18,0,0.321-0.017,0.417-0.037c0.005-0.233,0.021-0.742,0.062-1.903 c0.027-0.781,0.053-1.514,0.052-1.616c-0.002-0.267,0.205-0.488,0.471-0.503c0.01,0,0.02-0.001,0.029-0.001 c0.207,0,0.388,0.127,0.463,0.313c0.068,0.02,0.214,0.047,0.499,0.047c0.282,0,0.581-0.026,0.816-0.046 c0.179-0.015,0.328-0.027,0.419-0.027c0.201,0,0.472,0.137,0.55,0.322c0.037,0.088,0.046,0.186,0.03,0.281 c-0.013,0.85-0.007,9.062,0.023,9.539c0.003,0.02,0.004,0.04,0.004,0.059c0.002,0.253-0.185,0.468-0.436,0.5 c-0.022,0.003-0.043,0.004-0.065,0.004c-0.119,0-0.23-0.042-0.318-0.115c-0.151-0.038-0.486-0.086-0.74-0.123 c-1.129-0.163-1.635-0.252-1.8-0.676l0.023-0.009c-0.102-0.487-0.051-1.99-0.001-2.978c-0.123,0.038-0.68,0.202-0.788,0.236 c-0.001,0.247,0.003,0.62,0.007,1.021c0.019,2.183,0.008,2.197-0.116,2.373c-0.097,0.137-0.251,0.21-0.408,0.21 c-0.078,0-0.157-0.018-0.229-0.056c-0.037-0.001-0.081-0.001-0.129-0.001c-0.529,0-1.51,0.087-1.688,0.109 C11.665,24.85,11.629,24.854,11.593,24.854z"/><path fill="#010101" d="M15.582,14.359c0.031,0.288,0.474,0.36,0.962,0.36c0.491,0,1.027-0.073,1.236-0.073 c0.073,0,0.106,0.009,0.082,0.033c0-0.006,0-0.009,0-0.009c-0.011,0-0.015,9.33,0.024,9.674c-0.059-0.194-2.273-0.282-2.391-0.586 l0,0c-0.002,0,0.018-3.275,0.096-3.596c0-0.001,0-0.002,0.001-0.003c0,0.001,0,0.002-0.001,0.003 c-0.06,0.214-1.781,0.572-1.808,0.696c-0.002-0.01-0.004-0.015-0.006-0.015c-0.045,0,0.041,3.346-0.032,3.448 c0.021-0.042-0.129-0.057-0.359-0.057c-0.606,0-1.764,0.108-1.795,0.12c-0.155-0.233-0.081-9.174-0.094-9.422 c0.031-0.145,0.384-0.177,0.809-0.177c0.339,0,0.724,0.02,1.029,0.02c0.285,0,0.5-0.018,0.544-0.087 c-0.029,0.128,0.002,3.533-0.111,3.533c-0.003,0-0.005-0.002-0.008-0.005c0.026,0.131,0.398,0.203,0.789,0.203 c0.499,0,1.029-0.118,0.916-0.384C15.456,17.907,15.584,14.587,15.582,14.359 M11.498,14.926c0,0,0,0.002,0.001,0.005 c-0.001,0.005-0.002,0.01-0.002,0.016C11.497,14.933,11.498,14.926,11.498,14.926 M11.497,14.947c0,0.001,0,0.002,0,0.004 C11.496,14.949,11.496,14.948,11.497,14.947 M13.783,20.857c0.001,0.003,0.001,0.006,0.002,0.01 C13.783,20.864,13.782,20.861,13.783,20.857 M17.885,24.343c0.001,0.003,0.001,0.005,0.001,0.008 C17.886,24.349,17.886,24.347,17.885,24.343 M11.592,24.353C11.593,24.354,11.593,24.354,11.592,24.353 C11.592,24.354,11.591,24.354,11.592,24.353 M15.583,13.359c-0.019,0-0.039,0.001-0.058,0.002 c-0.416,0.024-0.759,0.299-0.888,0.672c-0.098-0.114-0.223-0.206-0.37-0.268c-0.125-0.052-0.256-0.078-0.386-0.078 c-0.14,0-0.278,0.029-0.405,0.086c-0.036,0.001-0.075,0.001-0.117,0.001c-0.007,0-0.015,0-0.023,0 c-0.14,0-0.297-0.005-0.459-0.009c-0.191-0.006-0.387-0.011-0.57-0.011c-0.002,0-0.003,0-0.005,0 c-0.474,0-1.572,0.003-1.781,0.965c-0.006,0.027-0.01,0.053-0.014,0.08c-0.005,0.031-0.008,0.063-0.009,0.095c0,0,0,0,0,0 c0,0,0,0.002,0,0.003c0,0,0,0,0,0l0,0.002c0,0.002,0,0.004,0,0.007c0,0.001,0,0.002,0,0.003c0,0.006,0,0.012-0.001,0.017 c-0.001,0.039,0,0.078,0.004,0.117c0.001,0.165-0.001,0.611-0.003,1.217c-0.018,5.842,0.001,7.568,0.1,8.206 c0.001,0.005,0.001,0.01,0.002,0.015c0.007,0.053,0.017,0.104,0.032,0.153c0.03,0.115,0.066,0.178,0.107,0.242 c0.153,0.249,0.412,0.426,0.715,0.468c0.046,0.007,0.093,0.01,0.139,0.01c0.064,0,0.127-0.006,0.188-0.018 c0.215-0.024,1.128-0.103,1.605-0.103c0.008,0,0.016,0,0.024,0c0.109,0.039,0.222,0.058,0.334,0.058 c0.314,0,0.622-0.148,0.816-0.421c0.095-0.134,0.151-0.22,0.181-0.44c0.364,0.441,1.054,0.54,2.015,0.678 c0.189,0.027,0.453,0.065,0.607,0.095c0.154,0.094,0.333,0.147,0.521,0.147c0.042,0,0.085-0.003,0.128-0.008 c0.502-0.064,0.876-0.494,0.873-1c0-0.038-0.003-0.077-0.008-0.116c-0.026-0.483-0.032-8.45-0.02-9.441 c0.022-0.172,0-0.35-0.069-0.513c-0.062-0.147-0.318-0.628-1.011-0.628c-0.101,0-0.264,0.012-0.462,0.029 c-0.231,0.02-0.519,0.044-0.774,0.044c-0.082,0-0.147-0.003-0.198-0.006C16.16,13.494,15.885,13.359,15.583,13.359L15.583,13.359z"/></g><g><path fill="#d6e5e5" d="M25.065,34.536c-0.154,0-0.315-0.01-0.483-0.031c-2.49-0.285-4.311-2.357-4.324-4.926 c0.111-2.698,2.168-5.104,4.402-5.174c0.089-0.005,0.187-0.007,0.282-0.007c0.873,0,1.548,0.233,2.265,0.821 c0.143-0.278,0.369-0.531,0.637-0.531c0.032,0,0.499-0.154,0.763-0.154c0.486,0,0.912,0.323,1.038,0.786 c0,0.002,0.017,0.071,0.02,0.104c0.004,0.053,0,0.104-0.011,0.154c-0.002,0.161-0.006,0.764-0.012,1.563 c-0.023,3.266-0.053,6.244-0.175,6.806c-0.006,0.028-0.015,0.056-0.025,0.082c-0.029,0.089-0.075,0.172-0.133,0.23 c-0.098,0.097-0.225,0.146-0.353,0.146c-0.125,0-0.741,0.067-0.904,0.067c-0.343,0-0.597-0.291-0.848-0.641 C26.678,34.182,25.998,34.536,25.065,34.536z M24.761,27.166c-0.436,0-0.883,0.214-1.227,0.586 c-0.423,0.458-0.637,1.082-0.586,1.71c0.017,1.291,0.68,2.31,1.703,2.671c0.63-0.233,2.04-0.945,1.914-2.621 c0.031-0.773-0.216-1.478-0.661-1.943c-0.262-0.274-1.046-0.402-1.079-0.402C24.819,27.167,24.761,27.166,24.761,27.166z"/><path fill="#010101" d="M25.065,35.036c-0.173,0-0.355-0.011-0.545-0.035c-2.742-0.313-4.747-2.593-4.762-5.42 c0.122-2.957,2.405-5.599,4.886-5.677c0.086-0.004,0.193-0.007,0.297-0.007c0.832,0,1.502,0.189,2.159,0.622 c0.218-0.215,0.475-0.332,0.744-0.332c0.224-0.079,0.519-0.154,0.763-0.154c0.711,0,1.336,0.475,1.52,1.155 c0.011,0.046,0.031,0.143,0.035,0.191c0.006,0.086,0.003,0.167-0.01,0.247l-0.011,1.518c-0.029,4.146-0.066,6.353-0.187,6.908 c-0.006,0.029-0.041,0.14-0.052,0.167c-0.041,0.131-0.13,0.281-0.243,0.393c-0.188,0.188-0.439,0.291-0.705,0.291 c-0.056,0.001-0.202,0.015-0.357,0.028c-0.219,0.019-0.453,0.039-0.547,0.039c-0.421,0-0.736-0.235-0.963-0.481 C26.592,34.768,25.92,35.036,25.065,35.036z M24.941,24.897c-0.086,0-0.174,0.002-0.254,0.006c-1.998,0.063-3.829,2.257-3.93,4.696 c0.012,2.29,1.645,4.153,3.881,4.409c1.089,0.132,1.784-0.258,2.285-0.594c0.224-0.151,0.527-0.096,0.685,0.124 c0.077,0.107,0.31,0.432,0.442,0.432c0.079,0,0.276-0.019,0.459-0.035c0.196-0.018,0.38-0.032,0.445-0.032 c0.144-0.62,0.171-4.468,0.187-6.767l0.012-1.567c0-0.035,0.005-0.069,0.013-0.103c-0.07-0.262-0.298-0.433-0.559-0.433 c-0.129,0-0.42,0.081-0.53,0.111c-0.105,0.029-0.157,0.043-0.233,0.043c-0.013,0.009-0.104,0.087-0.192,0.26 c-0.069,0.134-0.195,0.23-0.343,0.261c-0.147,0.032-0.301-0.007-0.418-0.103C26.276,25.103,25.711,24.897,24.941,24.897z M24.65,32.633c-0.056,0-0.113-0.009-0.167-0.028c-1.236-0.437-2.016-1.638-2.036-3.136c-0.06-0.734,0.202-1.496,0.719-2.056 c0.438-0.475,1.019-0.747,1.594-0.747c0.003,0,0.006,0,0.008,0l0.058,0.001c0.006,0,1.012,0.112,1.437,0.557 c0.544,0.569,0.835,1.411,0.799,2.309c0.104,1.344-0.733,2.513-2.24,3.07C24.768,32.623,24.709,32.633,24.65,32.633z M24.761,27.666c-0.297,0-0.61,0.155-0.859,0.425c-0.329,0.356-0.495,0.841-0.456,1.331c0.015,1.026,0.471,1.83,1.206,2.172 c0.635-0.273,1.503-0.865,1.414-2.044c0.024-0.686-0.167-1.261-0.524-1.635c-0.098-0.095-0.542-0.222-0.769-0.251L24.761,27.666z"/></g><g><path fill="#d6e5e5" d="M19.062,34.736c-0.117,0-0.926-0.243-1-0.261c-0.759-0.18-0.959-0.759-0.941-1.982 c0.048-0.494,0.011-1.837-0.008-2.523c-0.019-0.687-0.028-1.021-0.01-1.208c-0.149-0.769-0.459-1.22-1.086-1.262 c-0.003,0-0.01,0-0.01,0c-0.406,0-0.828,0.168-1.067,0.409c-0.075,0.075-0.162,0.188-0.175,0.314 c0.045,0.297,0.037,0.949,0.007,2.387c-0.021,1.034-0.053,2.577,0.008,2.938c0.006,0.168-0.017,0.303-0.014,0.388 c0.02,0.579-1.18,0.565-1.241,0.565c-0.008,0-0.017,0-0.025,0c-0.443-0.023-1.093-0.509-1.112-0.525 c-0.248-0.213-0.29-0.561-0.15-4.756c0.015-0.425,0.026-0.743,0.025-0.848c0-0.003,0-0.006-0.001-0.009 c-0.032-0.358-0.658-1.112-1.138-1.219c-1.034,0.098-1.263,1.209-1.266,1.223c-0.003,0.077,0.005,0.562,0.014,1.195 c0.059,4.3-0.033,4.567-0.266,4.804c-0.094,0.095-0.243,0.159-0.377,0.159c-0.104,0-0.223-0.039-0.308-0.099 c-0.097-0.069-1.095-0.225-1.373-0.606c-0.156-0.215-0.318-0.472-0.336-0.804c-0.053-0.936-0.076-3.903-0.026-4.615H7.18 c0.016-1.815,1.151-3.058,2.938-3.348c0.333-0.054,1.021-0.227,1.415-0.227c0.765,0,1.424,0.29,1.9,0.825 c0.154-0.093,0.302-0.187,0.447-0.278c0.356-0.225,1.085-0.689,1.779-0.7c1.222-0.02,2.357,0.51,3.117,1.4 c0.649,0.76,0.939,1.691,0.823,2.635c0.009,0.038,0.016,0.079,0.021,0.123c0.007,0.056,0.604,5.623-0.435,5.889 C19.145,34.731,19.104,34.736,19.062,34.736z"/><path fill="#010101" d="M19.062,35.236c-0.118,0-0.274-0.033-0.964-0.231l-0.155-0.044c-1.25-0.295-1.338-1.433-1.323-2.475 c0.047-0.505,0.01-1.854-0.008-2.502c-0.018-0.639-0.027-0.971-0.014-1.19c-0.163-0.764-0.445-0.783-0.616-0.794 c-0.274,0-0.561,0.132-0.69,0.262l-0.021-0.001c0.035,0.358,0.027,0.988-0.001,2.36c-0.017,0.82-0.053,2.526,0.001,2.844 c0.011,0.186,0.003,0.291-0.003,0.378c0.003,0.317-0.082,0.538-0.251,0.713c-0.375,0.388-1.087,0.446-1.478,0.446 c-0.711-0.035-1.472-0.641-1.479-0.647c-0.449-0.386-0.47-0.723-0.322-5.15c0.015-0.45,0.025-0.73,0.024-0.826 c-0.035-0.14-0.424-0.604-0.682-0.722c-0.577,0.117-0.727,0.785-0.733,0.815c0.01-0.018,0.013,0.251,0.019,0.659l0.006,0.427 c0.062,4.509-0.026,4.772-0.41,5.162c-0.336,0.341-0.942,0.393-1.33,0.117c0.044,0.031-0.017,0.016-0.087-0.003 c-0.554-0.15-1.118-0.329-1.4-0.716c-0.199-0.273-0.406-0.614-0.432-1.069c-0.051-0.894-0.076-3.677-0.033-4.568v-0.08 c0.018-2.033,1.304-3.503,3.358-3.837c0.092-0.015,0.213-0.04,0.347-0.067c0.365-0.074,0.819-0.167,1.148-0.167 c0.759,0,1.431,0.238,1.968,0.694l0.111-0.069c0.402-0.254,1.212-0.764,2.038-0.777c0.001,0,0.001,0,0.002,0 c1.398,0,2.648,0.574,3.503,1.575c0.72,0.843,1.055,1.883,0.948,2.938c0.005,0.027,0.009,0.055,0.012,0.084 c0.172,1.417,0.624,6.067-0.807,6.434C19.226,35.226,19.144,35.236,19.062,35.236z M16.005,27c0.864,0.056,1.384,0.616,1.587,1.667 l0.014,0.072L17.6,28.812c-0.016,0.155-0.006,0.507,0.012,1.145c0.02,0.72,0.057,2.059,0.006,2.585 c-0.017,1.311,0.263,1.377,0.559,1.447l0.197,0.055c0.204,0.059,0.542,0.158,0.694,0.188c0.304-0.355,0.303-3.168,0.056-5.342 l-0.021-0.242c0.098-0.802-0.153-1.601-0.708-2.25c-0.665-0.779-1.639-1.225-2.671-1.225c-0.604,0.009-1.253,0.418-1.565,0.615 c-0.16,0.101-0.31,0.196-0.467,0.291l-0.356,0.216l-0.277-0.312c-0.381-0.43-0.909-0.657-1.526-0.657 c-0.229,0-0.645,0.084-0.949,0.146c-0.149,0.03-0.283,0.058-0.386,0.074c-1.401,0.228-2.303,1.11-2.484,2.396l-0.029,0.493 c-0.049,0.7-0.024,3.662,0.026,4.552c0.011,0.186,0.104,0.349,0.242,0.538c0.072,0.091,0.359,0.205,0.853,0.339 c0.204,0.055,0.307,0.083,0.406,0.154c0.198-0.26,0.19-2.291,0.161-4.45l-0.006-0.426c-0.006-0.431-0.01-0.735-0.008-0.795 c0.127-0.636,0.618-1.598,1.718-1.702l0.079-0.008l0.077,0.017c0.697,0.156,1.476,1.098,1.527,1.662 c0.004,0.151-0.006,0.448-0.02,0.85c-0.077,2.316-0.13,4.197-0.011,4.45c0.157,0.11,0.593,0.373,0.796,0.383 c0.379,0,0.664-0.07,0.756-0.127c-0.016,0-0.013-0.05-0.008-0.105c0.004-0.057,0.01-0.125,0.007-0.203 c-0.058-0.314-0.038-1.585-0.009-2.966c0.025-1.251,0.039-2.031-0.002-2.302l-0.009-0.062l0.006-0.063 c0.022-0.217,0.132-0.431,0.319-0.617C14.919,27.219,15.478,27,16.005,27z"/></g></svg>