<svg xmlns="http://www.w3.org/2000/svg"  viewBox="0 0 48 48" width="240px" height="240px"><path fill="#71c598" d="M2.392,18.666c1.081,0,2.162,0.001,3.243,0.001c-0.049,1.248,0.197,2.542,0.148,3.79 c-0.012,0.318-0.014,0.669,0.196,0.908c0.229,0.261,0.618,0.287,0.965,0.295c1.678,0.037,2.501-0.241,4.153,0.053 c1.925,0.342,2.32,2.72,2.316,3.049c-0.04,3.547-0.122,5.561-0.162,9.108c-1.015,0.099-2.042,0.066-3.049-0.098 c0.074-2.007,0.148-4.013,0.222-6.02c0.022-0.588,0.037-1.207-0.235-1.729c-0.43-0.827-0.888-0.893-1.786-1.144 c-0.617-0.172-1.435,0.065-1.969,0.417c-0.659,0.435-0.623,1.547-0.587,2.335c0.092,2.038,0.109,4.063-0.033,6.098 c-0.717,0.27-2.315,0.065-3.424-0.205c0.054-0.699,0.053-1.95,0.086-2.763c0.126-3.036,0.158-6.076,0.097-9.115 C2.566,23.22,2.462,18.666,2.392,18.666z"/><path fill="#010101" d="M12.105,36.425c-0.664,0-1.328-0.054-1.983-0.161c-0.249-0.041-0.428-0.26-0.419-0.512l0.222-6.02 c0.018-0.498,0.039-1.062-0.179-1.479c-0.297-0.57-0.544-0.638-1.277-0.838l-0.2-0.055c-0.409-0.115-1.08,0.037-1.56,0.354 C6.274,28,6.322,29.046,6.347,29.608c0.106,2.343,0.096,4.299-0.033,6.155c-0.014,0.195-0.14,0.364-0.323,0.433 c-1.126,0.423-3.457-0.122-3.718-0.187c-0.238-0.058-0.399-0.28-0.38-0.524c0.032-0.414,0.044-1.024,0.056-1.618 c0.008-0.404,0.016-0.8,0.029-1.126c0.125-3.01,0.157-6.067,0.097-9.084c-0.02-0.997-0.106-4.366-0.161-4.843 c-0.014-0.046-0.022-0.096-0.022-0.147c0-0.276,0.224-0.5,0.5-0.5l0,0h0c0.006,0,0.013,0,0.02,0l3.223,0.001 c0.136,0,0.266,0.056,0.36,0.153c0.094,0.098,0.145,0.23,0.139,0.366c-0.023,0.595,0.023,1.198,0.073,1.836 c0.05,0.639,0.101,1.3,0.075,1.953c-0.006,0.16-0.018,0.456,0.072,0.559c0.099,0.113,0.438,0.121,0.6,0.125 c0.607,0.015,1.099-0.016,1.56-0.043c0.808-0.047,1.573-0.092,2.67,0.103c2.251,0.4,2.734,3.071,2.729,3.546 c-0.02,1.776-0.05,3.168-0.081,4.56c-0.03,1.389-0.061,2.778-0.081,4.549c-0.003,0.255-0.197,0.467-0.451,0.492 C12.903,36.406,12.504,36.425,12.105,36.425z M10.719,35.339c0.676,0.084,1.358,0.106,2.038,0.067 c0.02-1.562,0.048-2.832,0.076-4.102c0.03-1.389,0.061-2.778,0.081-4.549c-0.002-0.29-0.369-2.278-1.904-2.551 c-0.981-0.175-1.656-0.135-2.437-0.089c-0.484,0.028-0.999,0.06-1.64,0.044c-0.329-0.007-0.94-0.021-1.33-0.465 c-0.354-0.403-0.332-0.938-0.319-1.258c0.023-0.594-0.023-1.198-0.073-1.836c-0.037-0.47-0.074-0.952-0.081-1.434l-2.188-0.001 c0.062,0.762,0.087,2.104,0.134,4.47c0.061,3.038,0.028,6.115-0.098,9.146c-0.013,0.32-0.021,0.709-0.029,1.105 c-0.008,0.432-0.017,0.871-0.033,1.243c0.949,0.197,1.878,0.271,2.425,0.199c0.104-1.709,0.106-3.524,0.008-5.675 c-0.037-0.813-0.098-2.175,0.811-2.775c0.606-0.4,1.578-0.708,2.379-0.481l0.195,0.054c0.813,0.223,1.401,0.383,1.9,1.341 c0.339,0.653,0.313,1.388,0.291,1.978L10.719,35.339z"/><path fill="#71c598" d="M16.296,31.624c-0.019,0.834,0.046,1.48,0.444,2.213c0.494,0.908,1.295,1.285,2.29,1.566 c1.455,0.411,3.004,0.489,4.493,0.228c1.003-0.176,2.05-0.557,2.62-1.4c0.547-0.81,0.68-1.513,0.649-2.49 c-0.077-2.433-0.007-4.874-0.23-7.298c-0.055-0.602,0.124-1.269-1.115-1.183c-0.532,0.037-1.337,0-2.007,0.04 c0.142,1.954,0.364,3.953,0.213,5.906c-0.052,0.672-0.147,1.4-0.623,1.877c-0.521,0.522-0.855,0.556-1.592,0.585 c-0.395,0.016-0.895-0.004-1.21-0.242c-0.441-0.334-0.618-1.045-0.587-1.598c0.1-1.779,0.034-2.835,0.036-4.61 c0-0.255,0.194-1.849-0.556-1.719c-0.577,0.1-2.199-0.215-2.674,0.13c-0.461,0.336-0.198,2.149-0.209,2.641 C16.195,28.133,16.337,29.763,16.296,31.624z"/><path fill="#010101" d="M21.78,36.281c-0.975,0-1.951-0.133-2.887-0.397c-0.988-0.279-1.986-0.691-2.593-1.809 c-0.447-0.823-0.524-1.553-0.504-2.463l0,0c0.021-0.918-0.005-1.799-0.029-2.65c-0.025-0.864-0.051-1.758-0.03-2.702 c0.002-0.103-0.01-0.271-0.023-0.471c-0.079-1.214-0.097-2.175,0.438-2.564c0.411-0.299,1.07-0.285,2.025-0.231 c0.328,0.019,0.697,0.041,0.857,0.012c0.278-0.047,0.541,0.023,0.741,0.201c0.43,0.383,0.45,1.136,0.406,1.892l-0.006,0.119 c0,0.536,0.005,1.006,0.011,1.45c0.013,1.036,0.023,1.931-0.047,3.187c-0.027,0.479,0.141,0.982,0.39,1.171 c0.146,0.111,0.44,0.161,0.889,0.142c0.69-0.028,0.869-0.049,1.257-0.439c0.358-0.358,0.435-0.995,0.479-1.563 c0.122-1.579-0.009-3.227-0.135-4.82l-0.078-1.012c-0.01-0.133,0.034-0.265,0.122-0.365c0.088-0.101,0.213-0.162,0.346-0.17 c0.666-0.041,1.471-0.003,2.002-0.041c0.579-0.035,0.977,0.058,1.253,0.306c0.354,0.318,0.37,0.771,0.382,1.101 c0.003,0.076,0.005,0.153,0.013,0.229c0.15,1.636,0.169,3.297,0.188,4.903c0.009,0.809,0.019,1.617,0.044,2.425 c0.031,0.974-0.082,1.82-0.734,2.785c-0.557,0.825-1.549,1.368-2.948,1.613C23.006,36.229,22.393,36.281,21.78,36.281z M16.795,31.635c-0.018,0.783,0.039,1.328,0.383,1.963c0.408,0.75,1.062,1.063,1.986,1.323c1.381,0.39,2.858,0.465,4.271,0.216 c1.122-0.196,1.893-0.596,2.292-1.188c0.446-0.661,0.594-1.235,0.564-2.194c-0.026-0.814-0.035-1.629-0.045-2.444 c-0.018-1.587-0.037-3.228-0.184-4.824c-0.008-0.093-0.012-0.188-0.016-0.283c-0.004-0.117-0.014-0.359-0.052-0.394 c-0.001-0.001-0.098-0.085-0.515-0.052c-0.403,0.028-0.96,0.016-1.503,0.023l0.038,0.487c0.13,1.632,0.264,3.319,0.136,4.976 c-0.058,0.746-0.17,1.592-0.768,2.191c-0.649,0.65-1.13,0.7-1.926,0.732c-0.438,0.021-1.078,0.001-1.532-0.343 c-0.636-0.481-0.82-1.392-0.784-2.025c0.068-1.222,0.058-2.101,0.045-3.118c-0.005-0.448-0.011-0.923-0.011-1.464l0.007-0.175 c0.038-0.66-0.01-0.93-0.052-1.04c-0.265,0.033-0.613,0.013-1.011-0.01c-0.39-0.023-1.201-0.069-1.383,0.043 c-0.123,0.201-0.05,1.32-0.026,1.688c0.016,0.237,0.027,0.436,0.025,0.558c-0.021,0.918,0.005,1.799,0.029,2.651 C16.791,29.798,16.816,30.692,16.795,31.635L16.795,31.635z"/><g><path fill="#71c598" d="M32.472,18.611c-0.319,5.598-0.287,11.216,0.098,16.81c-0.996,0.132-2.008,0.137-3.005,0.013 c-0.028-2.718-0.055-5.437-0.083-8.155c-0.014-1.359-0.028-2.718-0.042-4.078c-0.013-1.256-0.016-3.354-0.016-4.756 C30.174,18.315,31.574,18.582,32.472,18.611z"/><path fill="#010101" d="M31.013,36.023c-0.504,0-1.009-0.031-1.509-0.093c-0.249-0.031-0.437-0.241-0.439-0.491 L28.94,23.207c-0.013-1.257-0.017-3.357-0.017-4.761c0-0.243,0.175-0.451,0.415-0.493c0.548-0.094,1.324-0.012,2.074,0.067 c0.387,0.041,0.763,0.082,1.076,0.092c0.135,0.004,0.262,0.063,0.353,0.162c0.091,0.1,0.138,0.231,0.13,0.366 c-0.317,5.559-0.284,11.193,0.098,16.747c0.018,0.263-0.172,0.495-0.434,0.53C32.098,35.988,31.555,36.023,31.013,36.023z M30.061,34.983c0.658,0.056,1.321,0.054,1.979-0.006c-0.344-5.275-0.375-10.619-0.094-15.899c-0.205-0.018-0.42-0.041-0.639-0.064 c-0.467-0.049-0.979-0.104-1.383-0.104c0.001,1.369,0.005,3.164,0.017,4.287L30.061,34.983z"/></g><g><path fill="#71c598" d="M34.861,23.462c-0.091,0.091,0.069,0.958,0.075,1.117c0.071,1.719-0.01,2.452-0.067,4.17 c-0.038,1.142-0.136,2.778,0.098,3.913c0.244,1.181,1.616,2.235,2.73,2.594c1.919,0.617,3.683,0.495,5.61,0.034 c1.228-0.293,1.972-1.589,2.16-2.791c0.229-1.464,0.071-2.476,0.081-3.955c0.01-1.423,0.082-3.871,0.044-5.149 c-0.852-0.085-2.661-0.036-3.516,0.007c-0.025,1.69,0.02,2.812,0,4.5c-0.01,0.843,0.152,2.005-0.299,2.718 c-0.459,0.726-0.635,0.869-1.567,0.869c-0.906,0-1.753-0.815-1.675-3.608c0.019-0.662,0.052-3.109-0.014-4.349 C37.446,23.435,34.861,23.462,34.861,23.462z"/><path fill="#010101" d="M40.371,36.181c-0.982,0-1.896-0.149-2.826-0.448c-1.274-0.411-2.783-1.59-3.067-2.969 c-0.219-1.062-0.166-2.477-0.123-3.614l0.015-0.417c0.014-0.438,0.03-0.813,0.045-1.156c0.043-0.996,0.074-1.716,0.021-2.977 c-0.002-0.037-0.015-0.117-0.028-0.215c-0.099-0.718-0.133-1.045,0.099-1.276c0.092-0.092,0.217-0.145,0.348-0.146 c0.107-0.001,2.623-0.027,3.711,0.072c0.248,0.022,0.441,0.224,0.454,0.472c0.067,1.292,0.03,3.796,0.014,4.389 c-0.054,1.893,0.349,2.598,0.594,2.85c0.16,0.164,0.35,0.244,0.581,0.244c0.743,0,0.766-0.036,1.145-0.636 c0.272-0.432,0.25-1.191,0.231-1.86c-0.006-0.209-0.012-0.411-0.01-0.597c0.01-0.81,0.004-1.488-0.001-2.162 c-0.006-0.733-0.012-1.459,0.001-2.34c0.004-0.264,0.212-0.479,0.475-0.492c0.676-0.034,2.64-0.099,3.591-0.005 c0.25,0.025,0.442,0.231,0.45,0.482c0.025,0.863,0.001,2.254-0.02,3.482c-0.011,0.622-0.021,1.21-0.024,1.686 c-0.003,0.456,0.01,0.867,0.022,1.261c0.028,0.882,0.055,1.715-0.11,2.768c-0.209,1.341-1.075,2.85-2.538,3.2 C42.299,36.046,41.304,36.181,40.371,36.181z M35.362,23.959c0.013,0.111,0.028,0.22,0.038,0.289 c0.02,0.143,0.034,0.258,0.036,0.31c0.054,1.304,0.022,2.042-0.021,3.063c-0.015,0.34-0.031,0.711-0.045,1.146l-0.015,0.421 c-0.041,1.083-0.091,2.432,0.103,3.375c0.198,0.958,1.396,1.898,2.394,2.219c1.625,0.523,3.223,0.529,5.34,0.023 c1.012-0.242,1.624-1.37,1.782-2.381c0.15-0.959,0.126-1.711,0.099-2.582c-0.013-0.406-0.026-0.83-0.023-1.3 c0.003-0.478,0.013-1.07,0.024-1.696c0.018-1.017,0.037-2.148,0.028-2.981c-0.72-0.029-1.757-0.011-2.53,0.018 c-0.005,0.667-0.001,1.254,0.004,1.845c0.005,0.68,0.011,1.365,0.001,2.182c-0.002,0.174,0.003,0.361,0.009,0.556 c0.023,0.813,0.05,1.734-0.385,2.424c-0.54,0.854-0.866,1.102-1.99,1.102c-0.501,0-0.95-0.189-1.298-0.547 c-0.639-0.658-0.926-1.827-0.877-3.575c0.015-0.521,0.046-2.542,0.005-3.866C37.223,23.96,36.024,23.957,35.362,23.959z"/></g></svg>