<svg xmlns="http://www.w3.org/2000/svg"  viewBox="0 0 48 48" width="240px" height="240px"><path fill="#1e4384" d="M3.875,22.5c0.021-2.615-0.308-5.783-0.288-8.397c0.008-1.016-0.051-2.519,0.141-3.516	C3.933,9.52,4.182,8.269,4.75,7.5c0.436-0.592,0.627-0.896,1.107-1.453c0.634-0.737,1.847-1.613,2.768-1.922	c3.946-1.326,7.588-0.717,11.75-0.625c2.647,0.058,4.868,0.788,7.5,0.5c0.895-0.098,2.58-0.719,3.474-0.608	c1.208,0.151,0.685,0.063,1.901,0.108c0.995,0.036,1.757,0.069,2.75,0c2.249-0.156,6.016,1.412,7.125,3.375	c0.987,1.746,1.436,4.247,1.343,6.25c-0.1,2.135,0.255,7.752,0.157,8.625c-0.086,0.77-0.5,7.026-0.5,10.375	c0,1.625,0.368,3.595,0.359,4.712c-0.007,1.003-0.54,1.787-0.609,2.788c-0.127,1.827-2.275,3.633-4,4.25	c-0.853,0.305-2.469,0.638-3.375,0.638c-4.875,0-4.75-0.013-9.375-0.013c-2.287,0-5.838-0.25-8.125-0.25	c-2.75,0-3.518,0.25-4.375,0.25c-2.875,0-3.982,0.192-5.875-0.5c-1.32-0.482-2.31-1.334-3.375-2.25	c-0.728-0.627-1.013-1.802-1.452-2.657c-0.551-1.074-0.391-2.512-0.423-3.718c-0.118-4.43,0.373-5.697,0.373-12.455	C3.873,22.815,3.875,22.5,3.875,22.5z"/><path fill="#d6e5e5" d="M24.399,36.823c-0.247-0.006-0.494-0.006-0.741,0c-0.339-0.019-0.679-0.031-1.019-0.056	c-0.902-0.068-1.797-0.204-2.674-0.407c-3.032-0.704-5.216-2.109-8.015-4.174c-0.217-0.192-0.42-0.389-0.63-0.587	c-0.05-0.043-0.093-0.105-0.118-0.167c-0.037-0.087-0.019-0.179,0.043-0.247c0.062-0.067,0.161-0.093,0.247-0.056	c0.056,0.025,0.111,0.05,0.161,0.08c2.097,0.79,4.222,2.54,7.176,2.964c0.852,0.198,1.71,0.352,2.575,0.463	c1.241,0.155,2.494,0.21,3.741,0.167c0.673-0.019,1.813,0.158,2.48,0.071c1.556-0.198,2.62-0.788,4.109-1.282	c0.784-0.259,1.549-0.556,2.297-0.902c0.111-0.062,0.247-0.08,0.37-0.05c0.204,0.05,0.327,0.259,0.277,0.463	c-0.006,0.025-0.019,0.056-0.031,0.08c-0.05,0.093-0.118,0.173-0.204,0.234c-0.71,0.556-1.476,1.044-2.285,1.451	c-1.526,0.772-2.729,1.314-4.409,1.629C26.783,36.673,25.382,36.785,24.399,36.823z M33.736,30.944	c-0.544,0.13-1.056,0.328-1.513,0.655c-0.074,0.043-0.136,0.105-0.186,0.173c-0.043,0.073-0.062,0.148-0.019,0.222	c0.043,0.074,0.118,0.08,0.198,0.074l0.747-0.093c0.562-0.074,1.036-0.225,1.698-0.074c0.204,0.012,0.401,0.05,0.593,0.111	c0.203,0.062,0.339,0.24,0.346,0.451c0.012,0.124,0.006,0.247-0.006,0.37c-0.043,0.34-0.12,1.089-0.219,1.416	c-0.167,0.599-0.368,0.757-0.585,1.338c-0.025,0.062-0.037,0.124-0.043,0.186c0.006,0.118,0.08,0.179,0.198,0.149	c0.074-0.025,0.142-0.068,0.198-0.124c0.277-0.259,0.518-0.556,0.716-0.883c0.544-0.908,0.891-1.04,0.951-2.982	c0.012-0.179,0.006-0.358-0.019-0.531c-0.019-0.148-0.11-0.284-0.253-0.339c-0.104-0.05-0.209-0.087-0.321-0.118	c-0.395-0.105-0.796-0.13-1.204-0.142C34.582,30.815,34.156,30.857,33.736,30.944z"/><path fill="#d6e5e5" d="M22.5,19c-0.24,0-0.452-0.173-0.493-0.418c-0.005-0.032-0.132-0.801-0.132-1.707	c0-0.53,0.081-0.892,0.153-1.211c0.054-0.242,0.097-0.433,0.097-0.664c0-0.583-0.119-1.421-0.12-1.429	c-0.039-0.273,0.151-0.527,0.424-0.566c0.274-0.042,0.527,0.151,0.566,0.424c0.005,0.037,0.13,0.918,0.13,1.571	c0,0.342-0.062,0.617-0.122,0.883c-0.063,0.282-0.128,0.573-0.128,0.992c0,0.82,0.117,1.536,0.118,1.543	c0.045,0.272-0.139,0.53-0.411,0.575C22.554,18.998,22.526,19,22.5,19z M22.5,11c-0.276,0-0.5,0.224-0.5,0.5s0.224,0.5,0.5,0.5	s0.5-0.224,0.5-0.5S22.776,11,22.5,11z M37,17.5c0-0.267-0.21-0.473-0.477-0.486c-0.268-0.025-0.497,0.199-0.522,0.465	C35.982,17.673,35.698,18,34.75,18c-1.042,0-1.534-0.3-1.691-1.128c0.283,0.078,0.607,0.137,0.955,0.128	C35.461,16.959,37,16.244,37,15c0-1.054-0.153-2-2-2c-1.682,0-3,1.373-3,3.125C32,17.359,32.285,19,34.75,19	C36.53,19,37,18.019,37,17.5z M35,14c1,0,1,0.172,1,1c0,0.485-0.979,0.971-2.014,1c-0.363,0.005-0.721-0.099-0.965-0.192	C33.161,14.772,33.98,14,35,14z M15.999,15.658c-0.149,2.233-1.4,2.343-2.311,2.343c-0.051,0-0.102,0-0.15,0L13.375,18	c-0.492,0-0.925-0.106-1.267-0.226c0.01,0.277,0.017,0.527,0.017,0.726c0,0.893-0.123,2.008-0.128,2.055	C11.969,20.811,11.752,21,11.5,21c-0.019,0-0.037-0.001-0.056-0.003c-0.274-0.031-0.472-0.278-0.442-0.552	c0.001-0.011,0.122-1.108,0.122-1.945c0-0.32-0.017-0.742-0.039-1.273c-0.023-0.567-0.05-1.282-0.068-2.113	c-0.012-0.053-0.022-0.107-0.016-0.164c0.002-0.023,0.009-0.039,0.012-0.061C11.006,14.456,11,14.001,11,13.5	c0-0.276,0.224-0.5,0.5-0.5c0.197,0,0.363,0.116,0.445,0.282C12.4,13.04,12.96,13,13.5,13c0.732,0,1.479,0.075,1.984,0.615	C15.893,14.052,16.062,14.72,15.999,15.658z M14.754,14.298C14.556,14.086,14.192,14,13.5,14c-1.144,0-1.392,0.217-1.485,0.922	c0.013,0.665,0.031,1.249,0.051,1.751C12.307,16.796,12.792,17,13.375,17l0.17,0.001c0.93,0.001,1.362,0.009,1.456-1.409	C15.043,14.954,14.96,14.519,14.754,14.298z M20.989,13.397c-0.057-0.271-0.323-0.445-0.592-0.387	c-0.037,0.008-0.908,0.192-1.812,0.506c-0.232,0.08-0.423,0.167-0.586,0.259V13.5c0-0.276-0.224-0.5-0.5-0.5S17,13.224,17,13.5V15	c0,0.209,0.026,0.524,0.058,0.904c0.063,0.752,0.15,1.783,0.069,2.676c-0.025,0.275,0.178,0.519,0.453,0.543	c0.016,0.001,0.031,0.002,0.046,0.002c0.256,0,0.474-0.195,0.498-0.455c0.089-0.98-0.002-2.062-0.069-2.851	c-0.024-0.277-0.041-0.501-0.048-0.683c0.192-0.304,0.365-0.486,0.908-0.675c0.841-0.292,1.68-0.47,1.688-0.472	C20.873,13.933,21.046,13.667,20.989,13.397z M29.5,12.945c-0.624,0-1.211,0.303-1.648,0.608c-0.169-0.361-0.534-0.608-1.352-0.608	c-0.579,0-1.093,0.288-1.49,0.605c-0.007-0.06-0.012-0.104-0.013-0.112c-0.034-0.274-0.284-0.469-0.558-0.434	c-0.274,0.034-0.468,0.284-0.434,0.558c0.001,0.01,0.121,0.979,0.121,1.688c0,0.852-0.123,3.2-0.125,3.224	c-0.014,0.276,0.197,0.511,0.473,0.526c0.009,0,0.018,0,0.027,0c0.264,0,0.485-0.207,0.499-0.474	c0.005-0.098,0.125-2.398,0.125-3.276c0-0.131-0.004-0.269-0.01-0.407c0.265-0.324,0.846-0.898,1.385-0.898	c0.369,0,0.465,0.052,0.459,0.04C27,14.061,27,14.374,27,14.625c0,0.875,0.12,3.773,0.125,3.896C27.137,18.79,27.358,19,27.625,19	c0.007,0,0.014,0,0.021,0c0.276-0.011,0.49-0.245,0.479-0.521c-0.001-0.029-0.117-2.821-0.124-3.767	c0.316-0.287,0.954-0.767,1.499-0.767c0.264,0,0.625,0,0.625,1.305c0,0.852-0.123,3.2-0.125,3.224	c-0.014,0.276,0.197,0.511,0.473,0.526c0.009,0,0.018,0,0.027,0c0.264,0,0.485-0.207,0.499-0.474	c0.005-0.098,0.125-2.398,0.125-3.276C31.125,14.68,31.125,12.945,29.5,12.945z"/><path fill="#d6e5e5" d="M28.75,29C26.925,29,26,27.991,26,26c0-1.822,1.03-3,2.625-3C29.952,23,31,23,31,25	c0,0.479-0.188,0.903-0.545,1.227c-0.838,0.761-2.465,0.829-3.333,0.803C27.334,27.722,27.837,28,28.75,28	c0.948,0,1.232-0.327,1.25-0.521c0.025-0.266,0.25-0.483,0.522-0.465C30.79,27.027,31,27.233,31,27.5C31,28.019,30.53,29,28.75,29z M27,26.025c0.919,0.04,2.26-0.063,2.783-0.539C29.933,25.35,30,25.2,30,25c0-1,0-1-1.375-1C27.211,24,27,25.253,27,26	C27,26.008,27,26.017,27,26.025z M34.5,29c-0.848,0-1.608-0.359-2.034-0.962C32.048,27.446,32,26.591,32,26	c0-0.705,0.065-1.714,0.63-2.336C33.154,23.086,34.026,23,34.5,23c0.647,0,1.533,0,2.054,0.868C36.881,24.413,37,25.441,37,26h-0.5	l0.5,0.088c0.001,0.421,0.002,0.945-0.162,1.35C36.455,28.387,35.537,29,34.5,29z M34.5,24c-0.517,0-0.939,0.125-1.13,0.336	C33,24.744,33,25.689,33,26c0,0.262,0,1.06,0.283,1.461C33.563,27.858,34.096,28,34.5,28c0.499,0,1.132-0.246,1.412-0.938	c0.09-0.223,0.089-0.639,0.088-0.972c0,0,0-0.09,0-0.09c0-0.537-0.122-1.315-0.304-1.618C35.488,24.036,35.172,24,34.5,24z M24.925,23.575c-0.026-0.257-0.05-0.49-0.05-0.7c0-0.458,0.119-1.296,0.12-1.304c0.039-0.273-0.151-0.527-0.424-0.566	c-0.274-0.038-0.527,0.151-0.566,0.424c-0.005,0.037-0.13,0.917-0.13,1.446c0,0.149,0.02,0.327,0.035,0.497	C23.488,23.133,22.993,23,22.5,23c-0.874,0-2.5,0-2.5,3c0,2.785,1.088,3,2.625,3c0.488,0,0.987-0.128,1.405-0.353	C24.093,28.85,24.276,29,24.5,29c0.276,0,0.5-0.224,0.5-0.5v-3.75C25,24.319,24.961,23.927,24.925,23.575z M22.625,28	C21.41,28,21,28,21,26s0.662-2,1.5-2c0.721,0,1.5,0.43,1.5,1.125v2.125C24,27.622,23.306,28,22.625,28z M13.947,28.724	c0.026-0.052,0.644-1.291,0.902-2.065l0.249-0.752c0.139-0.424,0.262-0.796,0.374-1.116c0.16-0.459,0.468-1.053,0.471-1.06	c0.127-0.245,0.032-0.546-0.213-0.674c-0.246-0.129-0.547-0.033-0.674,0.212c-0.014,0.027-0.344,0.663-0.529,1.191	c-0.114,0.325-0.238,0.703-0.38,1.134l-0.247,0.748c-0.092,0.275-0.24,0.628-0.387,0.956c-0.076-0.194-0.141-0.385-0.178-0.54	c-0.153-0.638-0.355-1.041-0.589-1.506l-0.05-0.101c-0.234-0.469-0.723-1.809-0.728-1.822c-0.094-0.259-0.379-0.394-0.641-0.299	c-0.259,0.094-0.394,0.381-0.299,0.641c0.021,0.057,0.513,1.408,0.772,1.928l0.051,0.102c0.223,0.444,0.384,0.765,0.51,1.292	c0.162,0.673,0.667,1.689,0.689,1.732C13.138,28.893,13.311,29,13.5,29S13.862,28.893,13.947,28.724z M19,28.5v-1.375	c0-0.461,0.036-0.922,0.069-1.344c0.03-0.381,0.056-0.733,0.056-1.031c0-0.667-0.129-1.321-0.135-1.348	c-0.054-0.271-0.317-0.446-0.588-0.392s-0.446,0.317-0.393,0.588c0.001,0.006,0.115,0.587,0.115,1.152	c0,0.275-0.026,0.601-0.053,0.954C18.037,26.15,18,26.638,18,27.125V28.5c0,0.276,0.224,0.5,0.5,0.5S19,28.776,19,28.5z M18.5,21	c-0.276,0-0.5,0.224-0.5,0.5s0.224,0.5,0.5,0.5s0.5-0.224,0.5-0.5S18.776,21,18.5,21z"/><path fill="#010101" d="M12.119,45.024c-1.281,0-2.249-0.083-3.541-0.555c-1.406-0.514-2.437-1.401-3.529-2.341	c-0.601-0.517-0.929-1.312-1.219-2.014c-0.114-0.277-0.226-0.549-0.352-0.793c-0.49-0.955-0.482-2.125-0.475-3.156	C3.005,35.899,3.007,35.639,3,35.388c-0.058-2.198,0.033-3.64,0.138-5.309c0.11-1.751,0.235-3.737,0.235-7.16l0.002-0.423	c0.01-1.292-0.068-2.754-0.143-4.168c-0.076-1.429-0.155-2.906-0.145-4.229l-0.001-0.673c-0.005-0.981-0.011-2.093,0.15-2.934	C3.444,9.417,3.701,8.08,4.348,7.203L4.648,6.79c0.262-0.363,0.465-0.645,0.83-1.068c0.735-0.855,2.02-1.745,2.988-2.07	c3.175-1.066,6.141-0.917,9.278-0.759C18.606,2.936,19.484,2.98,20.386,3c1.098,0.024,2.123,0.161,3.113,0.293	c1.448,0.193,2.814,0.376,4.321,0.21c0.306-0.034,0.743-0.142,1.205-0.257c0.854-0.212,1.736-0.432,2.385-0.35	c0.735,0.091,0.79,0.091,1.032,0.09c0.155,0,0.372-0.002,0.826,0.015l0.131,0.004c0.917,0.034,1.644,0.061,2.566-0.004	c2.396-0.158,6.378,1.475,7.595,3.628c0.96,1.698,1.513,4.257,1.407,6.52c-0.053,1.13,0.025,3.271,0.093,5.159	c0.069,1.896,0.108,3.08,0.062,3.498c-0.08,0.715-0.497,6.957-0.497,10.319c0,0.848,0.107,1.824,0.201,2.685	c0.084,0.765,0.163,1.487,0.159,2.031c-0.004,0.605-0.169,1.121-0.329,1.618c-0.13,0.405-0.253,0.789-0.281,1.201	c-0.138,1.987-2.355,3.98-4.331,4.686c-0.885,0.316-2.557,0.668-3.543,0.668c-2.47,0-3.657-0.003-4.828-0.007	C30.532,45.003,29.406,45,27.125,45c-1.154,0-2.644-0.064-4.084-0.125c-1.43-0.061-2.908-0.125-4.041-0.125	c-1.738,0-2.663,0.101-3.339,0.174c-1.094,0.119-1.833,0.08-2.534,0.09C12.766,45.02,12.433,45.024,12.119,45.024z M4.375,22.503	l-0.002,0.417c0,3.455-0.126,5.457-0.237,7.223C4.032,31.788,3.942,33.208,4,35.362c0.007,0.261,0.005,0.533,0.003,0.81	c-0.006,0.961-0.013,1.956,0.365,2.693c0.137,0.268,0.261,0.565,0.386,0.868c0.259,0.628,0.527,1.277,0.947,1.638	c1.065,0.917,1.985,1.708,3.221,2.159c1.435,0.525,2.358,0.51,4.19,0.484c0.679-0.01,1.381,0.031,2.441-0.084	c0.698-0.076,1.655-0.18,3.447-0.18c1.154,0,2.644,0.064,4.084,0.125C24.514,43.937,25.992,44,27.125,44	c2.283,0,3.409,0.003,4.55,0.007c1.17,0.003,2.356,0.007,4.825,0.007c0.845,0,2.417-0.328,3.207-0.609	c1.651-0.591,3.564-2.302,3.669-3.814c0.037-0.533,0.185-0.992,0.327-1.437c0.143-0.446,0.278-0.867,0.281-1.32	c0.003-0.486-0.072-1.181-0.153-1.916c-0.097-0.886-0.207-1.891-0.207-2.793c0-3.394,0.422-9.706,0.503-10.431	c0.041-0.366-0.014-1.883-0.067-3.351c-0.069-1.908-0.147-4.07-0.093-5.242c0.097-2.087-0.405-4.435-1.278-5.98	c-1.004-1.776-4.6-3.269-6.655-3.122c-0.975,0.067-1.724,0.04-2.672,0.005L33.232,4c-0.432-0.016-0.641-0.014-0.783-0.014	c-0.297,0.005-0.391-0.002-1.162-0.098c-0.461-0.057-1.29,0.147-2.02,0.329c-0.496,0.123-0.965,0.239-1.337,0.28	c-1.629,0.178-3.12-0.021-4.562-0.213C22.404,4.156,21.407,4.023,20.364,4c-0.912-0.02-1.8-0.065-2.67-0.109	c-3.04-0.154-5.913-0.299-8.91,0.708C7.992,4.865,6.849,5.661,6.236,6.374c-0.341,0.396-0.531,0.661-0.776,1L5.152,7.797	C4.64,8.492,4.397,9.757,4.219,10.68c-0.144,0.745-0.138,1.851-0.133,2.74l0.001,0.687c-0.01,1.292,0.068,2.754,0.143,4.168	C4.307,19.704,4.385,21.181,4.375,22.503L4.375,22.503z"/></svg>